<svg xmlns="http://www.w3.org/2000/svg" viewBox="0 0 120 120">
  <rect width="120" height="120" rx="24" fill="#f6f1e9"/>
  <path d="M18 54c0-9.9 8.1-18 18-18h48c9.9 0 18 8.1 18 18s-8.1 18-18 18H36c-9.9 0-18-8.1-18-18Z" fill="#f9d784"/>
  <path d="M24 60h72v12H24z" fill="#d16b23"/>
  <path d="M20 76c0-5.5 4.5-10 10-10h60c5.5 0 10 4.5 10 10v8H20v-8Z" fill="#e4b56b"/>
  <path d="M28 54c0-4.4 3.6-8 8-8h48c4.4 0 8 3.6 8 8v2H28v-2Z" fill="#fecf5a"/>
  <path d="M42 64c0 3.3-2.7 6-6 6s-6-2.7-6-6 2.7-6 6-6 6 2.7 6 6Zm36 0c0 3.3-2.7 6-6 6s-6-2.7-6-6 2.7-6 6-6 6 2.7 6 6Z" fill="#7fbf2b"/>
  <path d="M36 86h48v4H36z" fill="#cd8a3f"/>
</svg>